<mxfile host="Electron" modified="2023-09-28T12:42:03.548Z" agent="Mozilla/5.0 (Windows NT 10.0; Win64; x64) AppleWebKit/537.36 (KHTML, like Gecko) draw.io/21.6.8 Chrome/114.0.5735.289 Electron/25.5.0 Safari/537.36" etag="UZFLPKAmWHuotsGJnvA1" version="21.6.8" type="device">
  <diagram name="Page-1" id="mwgZKYXNaHYAJHqh26bM">
    <mxGraphModel dx="868" dy="1050" grid="1" gridSize="10" guides="1" tooltips="1" connect="1" arrows="1" fold="1" page="1" pageScale="1" pageWidth="850" pageHeight="1100" math="0" shadow="0">
      <root>
        <mxCell id="0" />
        <mxCell id="1" parent="0" />
        <mxCell id="2fh31a-23JPQ1XZRiZbq-4" value="" style="ellipse;html=1;shape=startState;fillColor=#000000;strokeColor=#ff0000;" vertex="1" parent="1">
          <mxGeometry x="395" y="20" width="30" height="30" as="geometry" />
        </mxCell>
        <mxCell id="2fh31a-23JPQ1XZRiZbq-5" value="" style="edgeStyle=orthogonalEdgeStyle;html=1;verticalAlign=bottom;endArrow=open;endSize=8;strokeColor=#ff0000;rounded=0;" edge="1" source="2fh31a-23JPQ1XZRiZbq-4" parent="1">
          <mxGeometry relative="1" as="geometry">
            <mxPoint x="410" y="110" as="targetPoint" />
          </mxGeometry>
        </mxCell>
        <mxCell id="2fh31a-23JPQ1XZRiZbq-6" value="оформление заказа" style="rounded=1;whiteSpace=wrap;html=1;absoluteArcSize=1;arcSize=14;strokeWidth=2;" vertex="1" parent="1">
          <mxGeometry x="360" y="110" width="100" height="50" as="geometry" />
        </mxCell>
        <mxCell id="2fh31a-23JPQ1XZRiZbq-7" value="" style="endArrow=classic;html=1;rounded=0;exitX=0.5;exitY=1;exitDx=0;exitDy=0;" edge="1" parent="1" source="2fh31a-23JPQ1XZRiZbq-6">
          <mxGeometry width="50" height="50" relative="1" as="geometry">
            <mxPoint x="440" y="300" as="sourcePoint" />
            <mxPoint x="410" y="250" as="targetPoint" />
          </mxGeometry>
        </mxCell>
        <mxCell id="2fh31a-23JPQ1XZRiZbq-8" value="" style="html=1;whiteSpace=wrap;aspect=fixed;shape=isoRectangle;" vertex="1" parent="1">
          <mxGeometry x="370" y="250" width="81.66" height="49" as="geometry" />
        </mxCell>
        <mxCell id="2fh31a-23JPQ1XZRiZbq-17" value="" style="edgeStyle=orthogonalEdgeStyle;rounded=0;orthogonalLoop=1;jettySize=auto;html=1;" edge="1" parent="1" source="2fh31a-23JPQ1XZRiZbq-11" target="2fh31a-23JPQ1XZRiZbq-16">
          <mxGeometry relative="1" as="geometry" />
        </mxCell>
        <mxCell id="2fh31a-23JPQ1XZRiZbq-11" value="оформление счёта" style="rounded=1;whiteSpace=wrap;html=1;absoluteArcSize=1;arcSize=14;strokeWidth=2;" vertex="1" parent="1">
          <mxGeometry x="200" y="360" width="100" height="60" as="geometry" />
        </mxCell>
        <mxCell id="2fh31a-23JPQ1XZRiZbq-12" value="" style="endArrow=classic;html=1;rounded=0;exitX=0.003;exitY=0.513;exitDx=0;exitDy=0;exitPerimeter=0;entryX=0.5;entryY=0;entryDx=0;entryDy=0;" edge="1" parent="1" source="2fh31a-23JPQ1XZRiZbq-8" target="2fh31a-23JPQ1XZRiZbq-11">
          <mxGeometry width="50" height="50" relative="1" as="geometry">
            <mxPoint x="440" y="300" as="sourcePoint" />
            <mxPoint x="490" y="250" as="targetPoint" />
            <Array as="points">
              <mxPoint x="250" y="275" />
            </Array>
          </mxGeometry>
        </mxCell>
        <mxCell id="2fh31a-23JPQ1XZRiZbq-13" value="товар есть&lt;br&gt;на складе" style="text;html=1;align=center;verticalAlign=middle;resizable=0;points=[];autosize=1;strokeColor=none;fillColor=none;" vertex="1" parent="1">
          <mxGeometry x="265" y="230" width="80" height="40" as="geometry" />
        </mxCell>
        <mxCell id="2fh31a-23JPQ1XZRiZbq-14" value="" style="endArrow=classic;html=1;rounded=0;" edge="1" parent="1" target="2fh31a-23JPQ1XZRiZbq-15">
          <mxGeometry width="50" height="50" relative="1" as="geometry">
            <mxPoint x="451.65999999999997" y="275" as="sourcePoint" />
            <mxPoint x="560" y="275" as="targetPoint" />
            <Array as="points">
              <mxPoint x="535" y="275" />
            </Array>
          </mxGeometry>
        </mxCell>
        <mxCell id="2fh31a-23JPQ1XZRiZbq-15" value="" style="ellipse;html=1;shape=endState;fillColor=#000000;strokeColor=#ff0000;" vertex="1" parent="1">
          <mxGeometry x="520" y="375" width="30" height="30" as="geometry" />
        </mxCell>
        <mxCell id="2fh31a-23JPQ1XZRiZbq-19" value="" style="edgeStyle=orthogonalEdgeStyle;rounded=0;orthogonalLoop=1;jettySize=auto;html=1;" edge="1" parent="1" source="2fh31a-23JPQ1XZRiZbq-16" target="2fh31a-23JPQ1XZRiZbq-18">
          <mxGeometry relative="1" as="geometry" />
        </mxCell>
        <mxCell id="2fh31a-23JPQ1XZRiZbq-16" value="оформление накладной" style="whiteSpace=wrap;html=1;rounded=1;arcSize=14;strokeWidth=2;" vertex="1" parent="1">
          <mxGeometry x="190" y="500" width="120" height="60" as="geometry" />
        </mxCell>
        <mxCell id="2fh31a-23JPQ1XZRiZbq-21" value="" style="edgeStyle=orthogonalEdgeStyle;rounded=0;orthogonalLoop=1;jettySize=auto;html=1;" edge="1" parent="1" source="2fh31a-23JPQ1XZRiZbq-18" target="2fh31a-23JPQ1XZRiZbq-20">
          <mxGeometry relative="1" as="geometry" />
        </mxCell>
        <mxCell id="2fh31a-23JPQ1XZRiZbq-18" value="" style="html=1;whiteSpace=wrap;aspect=fixed;shape=isoRectangle;" vertex="1" parent="1">
          <mxGeometry x="209.17" y="620" width="80.83" height="48.5" as="geometry" />
        </mxCell>
        <mxCell id="2fh31a-23JPQ1XZRiZbq-28" value="" style="edgeStyle=orthogonalEdgeStyle;rounded=0;orthogonalLoop=1;jettySize=auto;html=1;" edge="1" parent="1" source="2fh31a-23JPQ1XZRiZbq-20" target="2fh31a-23JPQ1XZRiZbq-26">
          <mxGeometry relative="1" as="geometry" />
        </mxCell>
        <mxCell id="2fh31a-23JPQ1XZRiZbq-20" value="выдача заказа" style="rounded=1;whiteSpace=wrap;html=1;" vertex="1" parent="1">
          <mxGeometry x="19.99999999999999" y="730" width="120" height="60" as="geometry" />
        </mxCell>
        <mxCell id="2fh31a-23JPQ1XZRiZbq-22" value="товар оплачен" style="text;html=1;align=center;verticalAlign=middle;resizable=0;points=[];autosize=1;strokeColor=none;fillColor=none;" vertex="1" parent="1">
          <mxGeometry x="90" y="618" width="100" height="30" as="geometry" />
        </mxCell>
        <mxCell id="2fh31a-23JPQ1XZRiZbq-23" value="" style="ellipse;html=1;shape=endState;fillColor=#000000;strokeColor=#ff0000;" vertex="1" parent="1">
          <mxGeometry x="360" y="745" width="30" height="30" as="geometry" />
        </mxCell>
        <mxCell id="2fh31a-23JPQ1XZRiZbq-25" value="" style="endArrow=classic;html=1;rounded=0;exitX=1;exitY=0.495;exitDx=0;exitDy=0;exitPerimeter=0;entryX=0.5;entryY=0;entryDx=0;entryDy=0;" edge="1" parent="1" source="2fh31a-23JPQ1XZRiZbq-18" target="2fh31a-23JPQ1XZRiZbq-23">
          <mxGeometry width="50" height="50" relative="1" as="geometry">
            <mxPoint x="310" y="730" as="sourcePoint" />
            <mxPoint x="360" y="680" as="targetPoint" />
            <Array as="points">
              <mxPoint x="375" y="644" />
            </Array>
          </mxGeometry>
        </mxCell>
        <mxCell id="2fh31a-23JPQ1XZRiZbq-26" value="" style="ellipse;html=1;shape=endState;fillColor=#000000;strokeColor=#ff0000;" vertex="1" parent="1">
          <mxGeometry x="65" y="850" width="30" height="30" as="geometry" />
        </mxCell>
      </root>
    </mxGraphModel>
  </diagram>
</mxfile>
